<?xml version="1.0" encoding="utf-8"?>
<!-- Generator: Adobe Illustrator 15.0.2, SVG Export Plug-In . SVG Version: 6.00 Build 0)  -->
<!DOCTYPE svg PUBLIC "-//W3C//DTD SVG 1.1//EN" "http://www.w3.org/Graphics/SVG/1.1/DTD/svg11.dtd">
<svg version="1.1" id="Layer_1" xmlns="http://www.w3.org/2000/svg" xmlns:xlink="http://www.w3.org/1999/xlink" x="0px" y="0px"
	 width="512px" height="512px" viewBox="0 0 512 512" enable-background="new 0 0 512 512" xml:space="preserve">
<path d="M256,65.269c11.368,0,22.506,0.995,33.321,2.903L316.862,0l73.169,29.583L362.49,97.749
	c20.411,13.751,37.997,31.35,51.768,51.755l68.159-27.541L512,195.131l-68.172,27.541c1.901,10.822,2.903,21.96,2.903,33.328
	s-1.002,22.506-2.903,33.321L512,316.862l-29.583,73.169l-68.159-27.541c-12.512,18.574-28.209,34.812-46.296,47.939l29.892,67.157
	l-72.076,32.14l-29.904-67.17c-12.871,2.736-26.205,4.175-39.873,4.175c-11.368,0-22.506-1.002-33.328-2.903L195.131,512
	l-73.168-29.583l27.541-68.159c-20.405-13.758-37.998-31.356-51.755-51.768l-68.166,27.541L0,316.862l68.172-27.541
	c-1.908-10.815-2.903-21.953-2.903-33.321s0.995-22.506,2.903-33.328L0,195.131l29.583-73.168l68.166,27.541
	c12.511-18.562,28.202-34.799,46.295-47.94l-29.897-67.157l72.083-32.133l29.904,67.17C228.992,66.707,242.326,65.269,256,65.269z
	 M256,124.461c-72.648,0-131.539,58.891-131.539,131.539c0,72.654,58.891,131.539,131.539,131.539
	c72.654,0,131.539-58.885,131.539-131.539C387.539,183.352,328.654,124.461,256,124.461z"/>
</svg>
